name rise30.9205peak61.366fall85.3838.mot
datacolumns 19
datarows 30
range 15.06994400000000 15.11827800000000
endheader
time	ground_force1_vx	ground_force1_vy	ground_force1_vz	ground_force1_px	ground_force1_py	ground_force1_pz	ground_force2_vx	ground_force2_vy	ground_force2_vz	ground_force2_px	ground_force2_py	ground_force2_pz	ground_torque1_x	ground_torque1_y	ground_torque1_z	ground_torque2_x	ground_torque2_y	ground_torque2_z	
15.06994400000000	59.51708900000000	725.31727200000000	49.56529300000000	0.36820800000000	0.00000000000000	0.09947800000000	0.18216000000000	7.24625900000000	0.68836200000000	0.00000000000000	0.00000000000000	0.00000000000000	0.00000000000000	23.74171700000000	0.00000000000000	0.00000000000000	0.08030300000000	0.00000000000000	
15.07163800000000	59.00800600000000	728.30510100000004	49.69753400000000	0.36705000000000	0.00000000000000	0.09950100000000	0.31000000000000	3.73504000000000	0.40632700000000	0.00000000000000	0.00000000000000	0.00000000000000	0.00000000000000	23.79911100000000	0.00000000000000	0.00000000000000	0.07087400000000	0.00000000000000	
15.07327300000000	58.50165600000000	731.23839099999998	49.82823800000000	0.36592800000000	0.00000000000000	0.09952400000000	0.00000000000000	0.00000000000000	0.00000000000000	0.00000000000000	0.00000000000000	0.00000000000000	0.00000000000000	23.85735200000000	0.00000000000000	0.00000000000000	0.00000000000000	0.00000000000000	
15.07494600000000	57.99834800000000	734.11491999999998	49.95705700000000	0.36483900000000	0.00000000000000	0.09954500000000	0.00000000000000	0.00000000000000	0.00000000000000	0.00000000000000	0.00000000000000	0.00000000000000	0.00000000000000	23.91622000000000	0.00000000000000	0.00000000000000	0.00000000000000	0.00000000000000	
15.07662400000000	57.49833100000000	736.93239400000004	50.08359800000000	0.36378400000000	0.00000000000000	0.09956500000000	0.00000000000000	0.00000000000000	0.00000000000000	0.00000000000000	0.00000000000000	0.00000000000000	0.00000000000000	23.97546500000000	0.00000000000000	0.00000000000000	0.00000000000000	0.00000000000000	
15.07827700000000	57.00179800000000	739.68846399999995	50.20743000000000	0.36276200000000	0.00000000000000	0.09958300000000	0.00000000000000	0.00000000000000	0.00000000000000	0.00000000000000	0.00000000000000	0.00000000000000	0.00000000000000	24.03480800000000	0.00000000000000	0.00000000000000	0.00000000000000	0.00000000000000	
15.07994300000000	56.50888800000000	742.38074099999994	50.32808700000000	0.36177300000000	0.00000000000000	0.09960100000000	0.00000000000000	0.00000000000000	0.00000000000000	0.00000000000000	0.00000000000000	0.00000000000000	0.00000000000000	24.09394000000000	0.00000000000000	0.00000000000000	0.00000000000000	0.00000000000000	
15.08162500000000	56.01968900000000	745.00680799999998	50.44507400000000	0.36081600000000	0.00000000000000	0.09961700000000	0.00000000000000	0.00000000000000	0.00000000000000	0.00000000000000	0.00000000000000	0.00000000000000	0.00000000000000	24.15253300000000	0.00000000000000	0.00000000000000	0.00000000000000	0.00000000000000	
15.08327800000000	55.53424000000000	747.56423400000006	50.55786800000000	0.35989000000000	0.00000000000000	0.09963100000000	0.00000000000000	0.00000000000000	0.00000000000000	0.00000000000000	0.00000000000000	0.00000000000000	0.00000000000000	24.21023700000000	0.00000000000000	0.00000000000000	0.00000000000000	0.00000000000000	
15.08494000000000	55.05253800000000	750.05059100000005	50.66593200000000	0.35899500000000	0.00000000000000	0.09964400000000	0.00000000000000	0.00000000000000	0.00000000000000	0.00000000000000	0.00000000000000	0.00000000000000	0.00000000000000	24.26668400000000	0.00000000000000	0.00000000000000	0.00000000000000	0.00000000000000	
15.08661000000000	54.57453400000000	752.46346600000004	50.76870900000000	0.35812900000000	0.00000000000000	0.09965600000000	0.00000000000000	0.00000000000000	0.00000000000000	0.00000000000000	0.00000000000000	0.00000000000000	0.00000000000000	24.32149200000000	0.00000000000000	0.00000000000000	0.00000000000000	0.00000000000000	
15.08827700000000	54.10014400000000	754.80047700000000	50.86563400000000	0.35729100000000	0.00000000000000	0.09966600000000	0.00000000000000	0.00000000000000	0.00000000000000	0.00000000000000	0.00000000000000	0.00000000000000	0.00000000000000	24.37426900000000	0.00000000000000	0.00000000000000	0.00000000000000	0.00000000000000	
15.08994400000000	53.62924400000000	757.05928500000005	50.95613900000000	0.35647900000000	0.00000000000000	0.09967500000000	0.00000000000000	0.00000000000000	0.00000000000000	0.00000000000000	0.00000000000000	0.00000000000000	0.00000000000000	24.42461700000000	0.00000000000000	0.00000000000000	0.00000000000000	0.00000000000000	
15.09162500000000	53.16168200000000	759.23760900000002	51.03965400000000	0.35569400000000	0.00000000000000	0.09968200000000	0.00000000000000	0.00000000000000	0.00000000000000	0.00000000000000	0.00000000000000	0.00000000000000	0.00000000000000	24.47212900000000	0.00000000000000	0.00000000000000	0.00000000000000	0.00000000000000	
15.09327900000000	52.69727400000000	761.33323900000005	51.11561700000000	0.35493200000000	0.00000000000000	0.09968700000000	0.00000000000000	0.00000000000000	0.00000000000000	0.00000000000000	0.00000000000000	0.00000000000000	0.00000000000000	24.51640100000000	0.00000000000000	0.00000000000000	0.00000000000000	0.00000000000000	
15.09494100000000	52.23581300000000	763.34404600000005	51.18347300000000	0.35419200000000	0.00000000000000	0.09969100000000	0.00000000000000	0.00000000000000	0.00000000000000	0.00000000000000	0.00000000000000	0.00000000000000	0.00000000000000	24.55702900000000	0.00000000000000	0.00000000000000	0.00000000000000	0.00000000000000	
15.09660800000000	51.77706700000000	765.26800100000003	51.24268700000000	0.35347400000000	0.00000000000000	0.09969300000000	0.00000000000000	0.00000000000000	0.00000000000000	0.00000000000000	0.00000000000000	0.00000000000000	0.00000000000000	24.59361600000000	0.00000000000000	0.00000000000000	0.00000000000000	0.00000000000000	
15.09827600000000	51.32078700000000	767.10317999999995	51.29273900000000	0.35277400000000	0.00000000000000	0.09969300000000	0.00000000000000	0.00000000000000	0.00000000000000	0.00000000000000	0.00000000000000	0.00000000000000	0.00000000000000	24.62576900000000	0.00000000000000	0.00000000000000	0.00000000000000	0.00000000000000	
15.09994200000000	50.86670600000000	768.84777599999995	51.33313600000000	0.35209200000000	0.00000000000000	0.09969200000000	0.00000000000000	0.00000000000000	0.00000000000000	0.00000000000000	0.00000000000000	0.00000000000000	0.00000000000000	24.65311000000000	0.00000000000000	0.00000000000000	0.00000000000000	0.00000000000000	
15.10160700000000	50.41454600000000	770.50011600000005	51.36341200000000	0.35142600000000	0.00000000000000	0.09969000000000	0.00000000000000	0.00000000000000	0.00000000000000	0.00000000000000	0.00000000000000	0.00000000000000	0.00000000000000	24.67527300000000	0.00000000000000	0.00000000000000	0.00000000000000	0.00000000000000	
15.10327400000000	49.96401800000000	772.05866300000002	51.38313300000000	0.35077300000000	0.00000000000000	0.09968600000000	0.00000000000000	0.00000000000000	0.00000000000000	0.00000000000000	0.00000000000000	0.00000000000000	0.00000000000000	24.69191000000000	0.00000000000000	0.00000000000000	0.00000000000000	0.00000000000000	
15.10494000000000	49.51482700000000	773.52202799999998	51.39190200000000	0.35013200000000	0.00000000000000	0.09968100000000	0.00000000000000	0.00000000000000	0.00000000000000	0.00000000000000	0.00000000000000	0.00000000000000	0.00000000000000	24.70269000000000	0.00000000000000	0.00000000000000	0.00000000000000	0.00000000000000	
15.10660900000000	49.06667200000000	774.88897999999995	51.38935900000000	0.34950100000000	0.00000000000000	0.09967400000000	0.00000000000000	0.00000000000000	0.00000000000000	0.00000000000000	0.00000000000000	0.00000000000000	0.00000000000000	24.70730400000000	0.00000000000000	0.00000000000000	0.00000000000000	0.00000000000000	
15.10827700000000	48.61925400000000	776.15845200000001	51.37518800000000	0.34887800000000	0.00000000000000	0.09966600000000	0.00000000000000	0.00000000000000	0.00000000000000	0.00000000000000	0.00000000000000	0.00000000000000	0.00000000000000	24.70546700000000	0.00000000000000	0.00000000000000	0.00000000000000	0.00000000000000	
15.10994800000000	48.17227300000000	777.32954800000005	51.34911400000000	0.34826100000000	0.00000000000000	0.09965600000000	0.00000000000000	0.00000000000000	0.00000000000000	0.00000000000000	0.00000000000000	0.00000000000000	0.00000000000000	24.69692100000000	0.00000000000000	0.00000000000000	0.00000000000000	0.00000000000000	
15.11162500000000	47.72543500000000	778.40155000000004	51.31091200000000	0.34764800000000	0.00000000000000	0.09964600000000	0.00000000000000	0.00000000000000	0.00000000000000	0.00000000000000	0.00000000000000	0.00000000000000	0.00000000000000	24.68143300000000	0.00000000000000	0.00000000000000	0.00000000000000	0.00000000000000	
15.11327300000000	47.27845000000000	779.37392199999999	51.26040500000000	0.34703700000000	0.00000000000000	0.09963400000000	0.00000000000000	0.00000000000000	0.00000000000000	0.00000000000000	0.00000000000000	0.00000000000000	0.00000000000000	24.65880100000000	0.00000000000000	0.00000000000000	0.00000000000000	0.00000000000000	
15.11494800000000	46.83103700000000	780.24631399999998	51.19746300000000	0.34642600000000	0.00000000000000	0.09962100000000	0.00000000000000	0.00000000000000	0.00000000000000	0.00000000000000	0.00000000000000	0.00000000000000	0.00000000000000	24.62885300000000	0.00000000000000	0.00000000000000	0.00000000000000	0.00000000000000	
15.11662000000000	46.38292900000000	781.01856699999996	51.12201200000000	0.34581300000000	0.00000000000000	0.09960700000000	0.00000000000000	0.00000000000000	0.00000000000000	0.00000000000000	0.00000000000000	0.00000000000000	0.00000000000000	24.59144800000000	0.00000000000000	0.00000000000000	0.00000000000000	0.00000000000000	
15.11827800000000	45.93386700000000	781.69071399999996	51.03402400000000	0.34519700000000	0.00000000000000	0.09959300000000	0.00000000000000	0.00000000000000	0.00000000000000	0.00000000000000	0.00000000000000	0.00000000000000	0.00000000000000	24.54647900000000	0.00000000000000	0.00000000000000	0.00000000000000	0.00000000000000	
